<svg xmlns="http://www.w3.org/2000/svg" viewBox="0 0 1024 1024" width="1024" height="1024">
<rect width="1024" height="1024" fill="#FAF7F0"/>
<rect x="220" y="150" width="584" height="708" rx="92" fill="#FFFDF8" stroke="#171513" stroke-width="16"/>
<rect x="238" y="168" width="548" height="672" rx="76" fill="none" stroke="#D9CFC0" stroke-width="4"/>
<circle cx="512" cy="306" r="76" fill="#FFFDF8" stroke="#171513" stroke-width="14"/>
<path d="M462 303 C486 272 536 270 562 298" fill="none" stroke="#171513" stroke-width="8" stroke-linecap="round"/>
<rect x="282" y="604" width="460" height="44" rx="18" fill="#FFFDF8" stroke="#171513" stroke-width="12"/>
<line x1="310" y1="626" x2="714" y2="626" stroke="#D9CFC0" stroke-width="5" stroke-linecap="round"/>
<rect x="302.0" y="498" width="28" height="264" rx="13" fill="#EF6B5A" stroke="#171513" stroke-width="8"/>
<line x1="316.0" y1="516" x2="316.0" y2="744" stroke="#FFFFFF" stroke-opacity="0.58" stroke-width="4" stroke-linecap="round"/>
<rect x="351.0" y="469" width="28" height="301" rx="13" fill="#F29B4B" stroke="#171513" stroke-width="8"/>
<line x1="365.0" y1="487" x2="365.0" y2="752" stroke="#FFFFFF" stroke-opacity="0.58" stroke-width="4" stroke-linecap="round"/>
<rect x="400.0" y="440" width="28" height="337" rx="13" fill="#E2C84D" stroke="#171513" stroke-width="8"/>
<line x1="414.0" y1="458" x2="414.0" y2="759" stroke="#FFFFFF" stroke-opacity="0.58" stroke-width="4" stroke-linecap="round"/>
<rect x="449.0" y="411" width="28" height="374" rx="13" fill="#86C95A" stroke="#171513" stroke-width="8"/>
<line x1="463.0" y1="429" x2="463.0" y2="767" stroke="#FFFFFF" stroke-opacity="0.58" stroke-width="4" stroke-linecap="round"/>
<rect x="496.0" y="382" width="32" height="410" rx="13" fill="#45B88E" stroke="#171513" stroke-width="8"/>
<line x1="512.0" y1="400" x2="512.0" y2="774" stroke="#FFFFFF" stroke-opacity="0.58" stroke-width="4" stroke-linecap="round"/>
<rect x="547.0" y="411" width="28" height="374" rx="13" fill="#42B8D9" stroke="#171513" stroke-width="8"/>
<line x1="561.0" y1="429" x2="561.0" y2="767" stroke="#FFFFFF" stroke-opacity="0.58" stroke-width="4" stroke-linecap="round"/>
<rect x="596.0" y="440" width="28" height="337" rx="13" fill="#4E8BE9" stroke="#171513" stroke-width="8"/>
<line x1="610.0" y1="458" x2="610.0" y2="759" stroke="#FFFFFF" stroke-opacity="0.58" stroke-width="4" stroke-linecap="round"/>
<rect x="645.0" y="469" width="28" height="301" rx="13" fill="#7968D8" stroke="#171513" stroke-width="8"/>
<line x1="659.0" y1="487" x2="659.0" y2="752" stroke="#FFFFFF" stroke-opacity="0.58" stroke-width="4" stroke-linecap="round"/>
<rect x="694.0" y="498" width="28" height="264" rx="13" fill="#D56DA4" stroke="#171513" stroke-width="8"/>
<line x1="708.0" y1="516" x2="708.0" y2="744" stroke="#FFFFFF" stroke-opacity="0.58" stroke-width="4" stroke-linecap="round"/>
<line x1="334" y1="810" x2="690" y2="810" stroke="#171513" stroke-width="10" stroke-linecap="round"/>
</svg>